# xmcd
#
# Track frame offsets: 
#        150
#        18472
#        33600
#        54020
#        68597
#        81149
#        98129
#        120419
#
# Disc length: 1834 seconds
#
# Revision: 0
# Processed by: cddbd v1.5.1PL0 Copyright (c) Steve Scherf et al.
# Submitted via: ExactAudioCopy v0.95a5
#
DISCID=57072808
DTITLE=Los Romeros de la Puebla - Selección des Grandes Éxitos
DYEAR=2001
DGENRE=Folklore
TTITLE0=Separados
TTITLE1=Tu madre, nina, tu madre la que ha salio a bailar
TTITLE2=Sevilla o Jerusalen
TTITLE3=Mírala, Mírala
TTITLE4=Morante de la puebla
TTITLE5=Antes que acabe la cuarta
TTITLE6=De mi padre aprendí yo
TTITLE7=Mi acento es de Andalucia
EXTD=
EXTT0=
EXTT1=
EXTT2=
EXTT3=
EXTT4=
EXTT5=
EXTT6=
EXTT7=
PLAYORDER=
